<svg id="app_logo" version="1.1" viewBox="0 0 300 300" width="22px" height="22px" xmlns="http://www.w3.org/2000/svg"><svg xmlns="http://www.w3.org/2000/svg"><defs><clipPath id="clip-1"><rect x="0" y="0" transform="scale(0.14648,0.14648)" width="2048" height="2048" fill="none"/></clipPath></defs><g clip-path="url(#clip-1)" fill="none" fill-rule="nonzero" stroke="none" stroke-width="1" stroke-linecap="butt" stroke-linejoin="miter" stroke-miterlimit="10" stroke-dasharray="" stroke-dashoffset="0" font-family="none" font-weight="none" font-size="none" text-anchor="none" style="mix-blend-mode: normal"><path d="M0,0h300v300h-300z" fill="#ffffff"/><path d="M126.94277,105.66987c0.12832,-0.02051 0.06812,-0.01362 0.22866,-0.02373c4.92715,-0.30952 9.91494,0.53906 14.22715,3.03032c3.54023,2.04536 6.14048,5.04111 8.92222,7.95952l5.72314,5.92998c3.75146,3.78853 7.53516,7.54556 11.34961,11.2708c3.08203,3.0668 6.07617,6.25327 9.34424,9.1248c-2.21631,2.55249 -4.64062,4.97739 -6.95508,7.44419c-0.33984,-0.58008 -0.68994,-1.1543 -1.04883,-1.72119c-1.60986,-2.49873 -3.65479,-4.64092 -6.23145,-6.14854c-1.22754,-0.71836 -2.57959,-1.32905 -3.61816,-2.32192c-4.4458,-4.25317 -8.80225,-8.69546 -13.08604,-13.11343c-2.70278,-2.7873 -5.35767,-5.89512 -8.39106,-8.31035c-1.64194,-1.30752 -3.3561,-2.01167 -5.39209,-2.46035c-2.13369,-0.36899 -4.32114,-0.28652 -6.42114,0.24214c-1.62935,0.42759 -3.13447,1.14082 -4.54131,2.06221c-3.30293,2.16343 -9.12319,7.75254 -11.11846,11.1958c-2.01724,3.48135 -2.70601,7.66802 -1.65337,11.57886c1.05293,3.9123 3.4396,6.46113 6.87187,8.45771c-2.53052,2.79785 -5.2207,5.4668 -7.83896,8.18408c-5.13486,-5.13135 -8.80942,-9.21826 -9.81094,-16.75166c-0.9397,-7.06772 1.29272,-14.33247 5.63452,-19.93345c1.79561,-2.31636 3.848,-4.41533 5.9688,-6.43169c5.36411,-5.1 10.34253,-8.33584 17.83667,-9.26411z" fill="#d1222b"/><path d="M193.73584,162.40283c0.20947,0.13037 0.14502,0.07617 0.31348,0.23584c5.73193,5.46973 9.73682,11.04053 9.9082,19.28906c0.16992,8.26172 -3.69873,14.77588 -9.26953,20.56348c-6.39111,6.64014 -12.81299,11.8667 -22.49268,12.01025c-3.92285,0.05859 -8.05225,-0.80713 -11.50488,-2.71436c-5.25586,-2.90186 -9.36475,-8.0332 -13.55127,-12.26074c-3.70854,-3.72363 -7.44097,-7.42383 -11.19683,-11.09912c-1.96626,-2.00977 -3.96211,-3.99023 -5.98682,-5.93994c4.93403,-0.0791 9.89473,0.1875 14.83857,0.15088c1.65557,1.41504 3.12144,3.11426 4.65659,4.66406l8.7627,8.79053c2.14893,2.15332 4.22461,4.48535 6.87158,6.03809c1.78125,1.0459 3.84229,1.62891 5.89746,1.771c4.26709,0.29736 8.13281,-1.10156 11.31738,-3.93018c1.58057,-1.40332 3.08057,-2.92383 4.56152,-4.43115c3.39111,-3.44971 6.26367,-6.73242 6.55225,-11.79932c0.19189,-3.375 -0.85107,-7.40186 -3.22559,-9.91113c-1.46631,-1.5498 -4.5791,-0.99463 -6.56836,-1.00635c3.27393,-3.55811 6.76611,-6.93164 10.11621,-10.4209z" fill="#237d45"/><path d="M152.16211,114.64146c0.04834,-0.03062 0.09521,-0.0605 0.14209,-0.09185c1.83838,-1.22783 3.3457,-2.98799 5.10938,-4.33477c5.47705,-4.18345 12.54199,-5.45771 19.24951,-4.20791c2.61621,0.47476 5.13721,1.37271 7.46338,2.6584c4.81641,2.66968 11.69092,9.13975 14.77002,13.6333c1.4209,2.07393 2.5166,4.25713 3.43213,6.59458c-3.68115,0.01084 -7.3667,0.05537 -11.04932,0.02432l-25.26855,0.02095c-1.98193,-2.12944 -4.0957,-4.16938 -6.1377,-6.24258c-2.56787,-2.6644 -5.29395,-5.25322 -7.71094,-8.05444z" fill="#030303"/><path d="M159.87305,122.6959c0.03516,-0.02827 0.07031,-0.05596 0.10547,-0.08452c1.18799,-0.98276 2.13574,-2.2522 3.26074,-3.30908c2.71143,-2.54722 6.60498,-3.71411 10.28174,-3.39551c2.00391,0.17358 3.90527,0.84082 5.63379,1.85493c2.74805,1.61221 9.89941,8.35635 11.96484,10.93989c0.05713,0.07002 0.10693,0.14399 0.15967,0.21592l-25.26855,0.02095c-1.98193,-2.12944 -4.0957,-4.16938 -6.1377,-6.24258z" fill="#292121"/><path d="M175.14404,59.38784c0.38086,-0.02578 0.76465,-0.11294 1.11768,0.04482c-2.19434,0.7708 -5.98389,1.08311 -8.45801,1.66304c-6.10986,1.43218 -12.13037,3.61699 -17.84912,6.18311c-6.60366,3.02256 -12.87715,6.72026 -18.71982,11.03408c-3.23174,2.35254 -6.44297,4.78696 -9.42246,7.45459c-12.01758,10.76001 -21.89165,24.74575 -27.62446,39.83672c-8.03774,21.19365 -8.45288,44.52422 -1.17437,65.9915c1.97769,5.80225 4.65557,10.96436 7.15635,16.52637c-0.20156,0.45117 -0.40151,0.90967 -0.65215,1.3374c-0.64307,1.09424 -1.36787,1.60254 -2.58647,1.90869c-0.5915,0.01611 -1.4313,0.14063 -1.90767,-0.25049c-1.04385,-0.8584 -1.73247,-3.01904 -2.30405,-4.24951c-5.12153,-11.02441 -8.07451,-23.1709 -9.10942,-35.26318c-2.49771,-27.22588 6.13359,-54.30308 23.9269,-75.06064c16.55493,-19.54102 41.72915,-35.09502 67.60708,-37.15649z" fill="#68752f"/><path d="M128.16577,140.25645c2.38608,2.25601 4.90781,4.36377 7.27119,6.64834c-4.70376,5.90186 -10.10449,11.25 -15.30718,16.70947c-3.20024,3.35742 -9.59912,9.38379 -11.43296,13.45166c-1.72134,3.81738 -1.16909,7.94238 0.202,11.74072c-2.55967,2.42139 -5.09604,4.9292 -7.79048,7.19971c-2.40396,-3.66211 -3.8231,-8.37158 -3.98379,-12.73975c-0.15381,-4.25977 0.8502,-8.48145 2.90508,-12.2168c2.8314,-5.0918 9.2061,-10.93945 13.32495,-15.21826c4.97915,-5.15186 9.91626,-10.34326 14.81118,-15.5751z" fill="#d1222b"/><path d="M101.10835,196.00635c2.69443,-2.27051 5.23081,-4.77832 7.79048,-7.19971c0.49585,1.04443 1.0106,2.00537 1.70815,2.92969c1.77187,2.34814 7.16016,7.53516 9.56675,9.271c1.20981,0.8877 2.53975,1.59814 3.9498,2.1123c3.44473,1.23633 7.47187,1.29053 10.80439,-0.32227c2.53301,-1.22607 4.49634,-3.21094 6.10913,-5.48145c2.63218,2.5957 5.20972,5.30566 7.94341,7.79004c-1.81201,1.57617 -3.52896,3.30908 -5.43413,4.76807c-4.61104,3.52734 -10.2873,4.96436 -16.04312,4.56299c-9.29692,-0.64746 -17.57915,-7.45312 -23.45171,-14.29541c-1.09629,-1.29199 -2.08096,-2.67627 -2.94316,-4.13525z" fill="#292121"/><path d="M82.82739,126.6c-0.7875,-1.62905 -1.53091,-3.27891 -2.22949,-4.9481c-4.66011,-11.41758 -5.03232,-24.72305 -1.79487,-36.56104c0.91729,-3.3542 2.23184,-6.65054 3.58154,-9.85166l0.22998,0.02329c7.96816,17.26538 10.17891,34.95103 3.51064,53.08286c-0.33765,0.91758 -0.69434,1.82812 -1.06948,2.73105c-0.70679,-1.45078 -1.68296,-2.97056 -2.22832,-4.47642z" fill="#98ae43"/><path d="M82.82739,126.6c-0.7875,-1.62905 -1.53091,-3.27891 -2.22949,-4.9481c-4.66011,-11.41758 -5.03232,-24.72305 -1.79487,-36.56104c0.91729,-3.3542 2.23184,-6.65054 3.58154,-9.85166l0.22998,0.02329c0.23218,4.84863 0.16362,9.71602 0.18018,14.56963l0.02271,22.64956l0.01362,9.61699c0.00908,1.43525 0.2165,3.0936 -0.00366,4.50132z" fill="#68752f"/><path d="M61.4978,108.20376c2.77148,1.99497 6.50244,7.20439 8.45903,10.13101c6.90381,10.32627 11.20459,22.83384 11.2188,35.32002c0.0022,2.01709 0.06343,4.19971 -0.33237,6.18311c-2.87769,-1.9834 -5.67437,-5.39502 -7.81113,-8.16797c-9.45059,-12.38862 -13.59888,-28.02144 -11.53433,-43.46616z" fill="#68752f"/><path d="M106.4376,53.88149c0.04761,0.06372 0.1043,0.12144 0.14268,0.19102c0.50156,0.91128 0.97749,4.74873 1.16572,6.04805c1.89976,12.50522 0.08408,25.29302 -5.22173,36.77505c-0.74619,1.62407 -5.08623,9.99375 -6.11938,10.37725l-0.18633,-0.36152c-0.94233,-3.02417 -1.71782,-6.0063 -2.1917,-9.1415c-1.73481,-11.94346 0.49775,-24.12612 6.35508,-34.67813c1.77949,-3.25444 3.85605,-6.2291 6.05566,-9.21021z" fill="#68752f"/><path d="M149.1167,80.775c6.63721,-0.58608 13.65088,0.49541 20.04639,2.21426c-10.03711,6.67002 -20.75244,11.01108 -32.82173,12.10195c-6.14253,0.81387 -14.09312,0.04482 -19.93975,-1.95044c8.63115,-8.04053 21.1812,-11.61753 32.71509,-12.36577z" fill="#98ae43"/><path d="M166.54395,37.51011c0.2417,0.00967 0.12744,-0.02637 0.33984,0.1229c-0.44971,1.27354 -0.95654,2.52612 -1.52051,3.75381c-6.80713,14.69487 -20.02837,25.68618 -35.04243,31.23472l-0.07163,-0.01948l-0.09976,-0.20142c0.67617,-3.04761 1.74741,-5.99385 3.18633,-8.76431c4.91294,-9.68423 13.81655,-17.72021 23.54165,-22.44741c3.10693,-1.51055 6.38965,-2.60449 9.6665,-3.67881z" fill="#68752f"/><path d="M170.24121,151.15723c2.5957,0.05859 13.58203,-0.31201 15.16406,0.2373c-0.16699,0.12158 -0.25049,0.17139 -0.35303,0.35596c0.2168,0.22266 0.36328,0.47168 0.67383,0.52588l0.8877,-1.00049c4.62305,-0.14648 9.4043,-0.19922 14.02295,0.02197c-3.52148,4.46777 -7.77686,8.37451 -11.72461,12.4585c-3.07324,2.99414 -5.90479,6.25635 -8.96924,9.27393c-3.77344,0.2124 -7.63916,0.06006 -11.42139,0.07471c0.84814,-1.26562 1.5791,-2.53857 2.15332,-3.95361c2.34961,-5.79785 1.99658,-12.30469 -0.43359,-17.99414z" fill="#237d45"/><path d="M199.06055,35.94961c0.93164,-0.09346 1.89697,-0.0731 2.83447,-0.098c-0.76758,1.08398 -1.62451,2.13516 -2.47852,3.15308c-8.75391,10.4373 -23.83887,18.58579 -37.43555,19.76616c-0.94922,0.13652 -1.93652,0.12598 -2.89746,0.15776c1.1001,-2.22129 2.64551,-4.31704 4.25684,-6.19658c9.01611,-10.51655 22.15869,-15.76055 35.72021,-16.78242z" fill="#98ae43"/><path d="M130.50791,45.68247c0.02476,0.02358 0.05479,0.04277 0.07441,0.0709c0.40078,0.57524 0.00088,5.25586 -0.08584,6.20786c-1.32129,14.25952 -8.18599,27.43081 -19.11782,36.6813c-0.28931,-3.00439 -0.44312,-5.93511 -0.1689,-8.95063c0.98672,-10.85054 6.05361,-21.0104 13.56592,-28.82812c1.79707,-1.87017 3.74561,-3.51855 5.73223,-5.1813z" fill="#98ae43"/><path d="M165.52441,66.28022c7.19092,-0.13594 16.18652,1.68853 22.64648,4.86079c-6.6709,3.75073 -14.69238,5.85381 -22.32568,6.09097c-8.19873,0.41309 -15.32812,-1.26211 -22.97578,-4.10376c6.38496,-4.72119 14.86787,-6.61025 22.65498,-6.848z" fill="#68752f"/><path d="M187.78125,57.77739c9.2124,-0.58594 18.45996,2.92207 25.89551,8.16372c-3.38232,1.21084 -7.19971,1.72412 -10.75928,2.01387c-9.36182,0.57627 -18.70605,-1.57646 -26.16357,-7.44434c3.62695,-1.60679 7.06934,-2.48159 11.02734,-2.73325z" fill="#98ae43"/><path d="M280.8252,238.31689c2.59277,-0.02197 5.21777,-0.12744 7.80762,-0.02051c1.58643,0.06592 3.30908,0.42773 4.40186,1.67725c0.75146,0.85986 0.97559,2.03906 0.89063,3.15234c-0.11279,1.4707 -1.07812,2.33203 -2.14014,3.20654c0.06592,0.02344 0.1333,0.04688 0.20068,0.07031c1.20703,0.44385 2.28955,1.10303 2.80811,2.33789c0.5332,1.27295 0.23584,2.64258 -0.271,3.86865c-0.14795,0.2124 -0.30029,0.42627 -0.47461,0.61816c-1.9585,2.16064 -5.79346,1.75781 -8.41699,1.73584c-1.58936,-0.01465 -3.17725,-0.01172 -4.76514,0.01025c0.09521,-2.18408 -0.01318,-4.40039 -0.03076,-6.5874z" fill="#030303"/><path d="M283.63037,247.61865c2.18115,0 5.9209,-0.47021 7.77686,0.85107c0.43652,0.31201 0.74707,0.68994 0.81299,1.24219c0.09229,0.78223 -0.36914,1.63916 -0.84961,2.21484c-1.82227,1.00195 -5.65576,0.5332 -7.75342,0.49365z" fill="#ffffff"/><path d="M283.6377,240.81885c1.82813,-0.03076 4.97021,-0.47021 6.58301,0.49805c0.44238,0.2666 0.73242,0.60059 0.85254,1.11328c0.17578,0.75146 -0.24023,1.61572 -0.63721,2.2207c-1.58643,1.05176 -4.82666,0.58447 -6.70605,0.5625c-0.01172,-1.46484 -0.04248,-2.92969 -0.09229,-4.39453z" fill="#ffffff"/><path d="M117.64629,169.96729c4.42485,-4.26855 8.48188,-8.90771 12.81226,-13.27002c-0.56543,3.97852 -0.43403,7.59229 0.75981,11.44043c1.21304,2.7041 2.83755,5.87109 5.1208,7.83105c-2.55425,1.72119 -4.84468,3.854 -7.30503,5.70996c-2.07847,-2.00244 -4.14932,-3.9917 -6.12349,-6.09814c-1.81875,-1.80762 -3.53145,-3.72363 -5.26436,-5.61328z" fill="#d1222b"/><path d="M131.21836,168.1377c1.21304,2.7041 2.83755,5.87109 5.1208,7.83105c-2.55425,1.72119 -4.84468,3.854 -7.30503,5.70996c-2.07847,-2.00244 -4.14932,-3.9917 -6.12349,-6.09814c1.42031,-1.57764 2.94888,-3.0542 4.57471,-4.41797c1.23354,-1.02539 2.53755,-1.95117 3.73301,-3.0249z" fill="#237d45"/><path d="M203.83301,238.25537c2.94873,0.04688 7.42969,-0.47754 10.12793,0.45703c1.35498,0.47021 2.51514,1.37842 3.14063,2.68506c0.63135,1.32275 0.71191,3.12891 0.20801,4.50439c-0.59326,1.62012 -1.90137,2.43018 -3.37939,3.1333c1.38281,2.03174 2.90625,3.96533 4.32275,5.97656l-2.2251,0.01025l-1.27148,-0.01318c-1.34326,-1.8501 -2.66455,-3.71631 -3.9624,-5.59717l-4.1001,0.02783l0.01904,5.54736l-2.9458,0.01465c0.01465,-3.65186 0.00732,-7.30371 -0.02197,-10.95557c-0.00879,-1.86182 -0.20654,-3.95947 0.08789,-5.79053z" fill="#030303"/><path d="M206.71729,240.87598c1.94092,-0.04248 5.12988,-0.52295 6.74561,0.65771c0.61963,0.4541 0.94482,1.10449 1.06348,1.85156c0.16992,1.0752 -0.1377,1.81348 -0.77783,2.66455c-1.93799,1.28906 -4.82812,0.84961 -7.05615,0.81445z" fill="#ffffff"/><path d="M141.6624,126.86016c1.88877,1.67007 3.64409,3.56294 5.43428,5.3417c2.31738,2.30332 4.70654,4.56782 6.92578,6.96577c-4.33301,-0.04438 -8.58076,0.60059 -12.9126,0.5499c-4.10405,-0.12671 -8.2106,-0.15645 -12.31597,-0.08906c4.52402,-3.97866 8.37407,-8.74131 12.86851,-12.76831z" fill="#d1222b"/><path d="M103.90298,238.07227c0.63999,-0.07617 1.28657,-0.13184 1.93022,-0.06006c1.06934,0.12012 2.23184,0.59619 2.90889,1.46045c0.59297,0.75732 0.75205,1.76074 0.58242,2.69385c-0.35024,1.9248 -2.01094,2.9209 -3.51533,3.90234c1.10742,1.16162 2.21455,2.31445 3.3772,3.42188c0.59326,-0.88184 0.95947,-1.82812 1.33887,-2.81396c0.81445,0.29736 1.5397,0.65039 2.29673,1.06934c-0.55063,1.20703 -1.21304,2.32324 -1.89463,3.45703c0.69756,0.66504 1.40757,1.31543 2.12974,1.9541l-1.4105,1.64355c-0.18604,0.20801 -0.15674,0.21094 -0.44912,0.30469c-0.69302,-0.49805 -1.19663,-1.37549 -1.72456,-2.05371l-0.24536,0.17432c-1.99688,1.40771 -4.03418,2.32471 -6.54639,1.83398c-1.37578,-0.26807 -2.72212,-0.98584 -3.50508,-2.17969c-0.623,-0.94629 -0.8335,-2.10498 -0.58271,-3.20947c0.43696,-2.00684 1.97446,-3.17139 3.5896,-4.23047c-0.4144,-0.57275 -0.84258,-1.18945 -1.10815,-1.8457c-0.41367,-1.02393 -0.52368,-2.21777 -0.06562,-3.24609c0.56411,-1.26562 1.66069,-1.82959 2.8938,-2.27637z" fill="#030303"/><path d="M103.55815,247.25244c1.45225,1.22168 2.64067,2.81982 4.07285,4.09863c-0.75425,0.55371 -1.47158,0.9375 -2.32837,1.29492c-0.68057,0.07617 -1.37388,0.16846 -2.05313,0.03076c-0.66562,-0.13477 -1.33901,-0.49658 -1.71021,-1.08105c-0.32051,-0.50537 -0.38672,-1.11768 -0.25107,-1.69482c0.29575,-1.25537 1.25757,-1.97754 2.26992,-2.64844z" fill="#ffffff"/><path d="M104.75977,240.09814c0.06665,0.00146 0.1333,-0.00146 0.1998,0.00146c0.62256,0.02783 1.35059,0.19922 1.75063,0.71924c0.25122,0.32666 0.29033,0.68848 0.2165,1.07959c-0.20947,1.11182 -1.03828,1.68604 -1.92422,2.26172l-0.47666,0.11572c-0.53496,-0.24609 -0.90322,-0.71338 -1.13218,-1.24658c-0.2458,-0.57422 -0.29927,-1.38135 -0.01743,-1.95264c0.29268,-0.59326 0.80142,-0.76904 1.38354,-0.97852z" fill="#ffffff"/><path d="M59.054,238.21875l2.64448,0.0249c2.97217,3.9624 6.19702,7.771 9.27817,11.65137c0.14648,-3.85547 0.05933,-7.75049 0.01318,-11.60889l2.96104,0.00439c0.00044,1.79883 0.21724,16.21729 -0.16538,16.71973l-2.57417,0.00439c-2.97026,-3.95801 -6.01187,-7.86035 -9.12334,-11.7085l-0.05771,11.68799l-2.9751,0.02051z" fill="#030303"/><path d="M49.99995,238.25684l5.59688,-0.04687l0.02344,2.60742l-9.54932,0.05127l0.0271,4.3374l8.39092,0.00586l0.00015,2.55908c-2.80151,0.08936 -5.61577,0.02783 -8.4189,0.01904c0.00381,1.19971 -0.43916,3.62842 0.35889,4.52344l0.70225,0.02637c2.93672,0.00586 5.87344,-0.00439 8.80986,-0.03223l-0.05303,2.63672l-12.83892,-0.00146l-0.04775,-16.6626z" fill="#030303"/><path d="M9.81334,238.21875l12.59672,-0.00146l-0.02915,2.61328l-9.6386,0.0293l0.01578,4.34326l8.52858,-0.00586l0.02681,2.62646c-2.52686,0.00732 -5.05371,0.00293 -7.58054,-0.01465c-0.25865,0.00293 -0.48482,0.03076 -0.73956,0.07031c-0.60722,0.82031 -0.26821,3.38672 -0.2549,4.41357l9.84296,0.06592l-0.00337,2.57227l-12.75971,0.01465c-0.05856,-5.57373 -0.01724,-11.15332 -0.00502,-16.72705z" fill="#030303"/><path d="M221.10645,238.25244c4.16895,0.05566 8.33643,0.04688 12.50537,-0.02783l-0.00146,2.61475l-9.71631,0.00146c0.06738,1.45313 0.0498,2.9165 0.06152,4.37256l8.67773,0.01025l0.00146,2.59277c-2.521,0.0249 -5.04199,0.01611 -7.56152,-0.02344c-0.35303,-0.03076 -0.56396,-0.06006 -0.8877,0.10107c-0.57129,1.06494 -0.21094,3.26074 -0.19775,4.47656l10.021,-0.00146l0.02637,2.58398c-4.32568,-0.05713 -8.65137,-0.04395 -12.97705,0.03516l-0.03516,-10.96289c-0.00586,-1.88086 -0.16553,-3.91699 0.0835,-5.77295z" fill="#030303"/><path d="M169.2041,182.59277l1.44141,-0.01025c-3.6958,3.71338 -7.4165,7.40332 -11.16211,11.06689c-1.60547,-1.42969 -3.08789,-3.07471 -4.60693,-4.60254c-2.08887,-2.16064 -4.23633,-4.27148 -6.35596,-6.4043c6.89502,0.0542 13.79004,0.03809 20.68359,-0.0498z" fill="#237d45"/><path d="M254.79639,238.2583l2.96484,-0.03955c0.01025,5.5415 0.05566,11.08154 0.13916,16.62158c-0.86426,0.2666 -2.12109,0.12305 -3.03955,0.12305l0.01904,-6.9917l-8.625,-0.00732l0.0498,6.95215l-2.85791,0.03662l0.0293,-16.70947l2.90771,-0.00732l-0.0293,7.03418c2.82568,-0.00146 5.65283,0.01611 8.47852,0.05273c0.06006,-2.354 -0.00293,-4.71094 -0.03662,-7.06494z" fill="#030303"/><path d="M139.51201,238.2041l2.89058,0.03809c-0.01494,3.00879 -0.67837,10.73438 1.2583,12.97998c0.77183,0.89648 1.84292,1.31104 3.00952,1.35498c1.1499,0.04395 2.27197,-0.24023 3.10693,-1.06934c0.62695,-0.62256 0.99756,-1.42822 1.20117,-2.2793c0.56396,-2.35547 0.20947,-8.26611 0.19336,-10.94531c1.01367,-0.00293 2.02734,-0.01904 3.04102,-0.0498l0.00293,2.66016c0.0293,3.6958 0.78955,9.07471 -1.91162,12.00732c-1.38281,1.50293 -3.31787,2.26172 -5.34229,2.29395c-2.03291,0.03223 -4.02393,-0.64746 -5.4627,-2.11816c-0.69902,-0.70898 -1.21567,-1.57617 -1.50571,-2.52979c-0.84595,-2.75391 -0.45513,-9.12891 -0.48149,-12.34277z" fill="#030303"/><path d="M273.52441,238.25537l3.01025,-0.02637l0.00293,2.51807c0.02051,3.67236 0.78516,9.4043 -1.91016,12.27979c-1.3667,1.45752 -3.38672,2.15039 -5.354,2.16064c-2.0127,0.01172 -4.02832,-0.65625 -5.44775,-2.12109c-0.76025,-0.78516 -1.27588,-1.74609 -1.55566,-2.79932c-0.77051,-2.91211 -0.375,-8.79346 -0.36475,-12.03516l2.9209,0.00732c-0.01172,2.69971 -0.3457,8.31885 0.14209,10.71973c0.17725,0.88037 0.51123,1.72266 1.12354,2.39502c0.78369,0.86133 1.8501,1.2085 2.99268,1.22314c1.16748,0.01611 2.29834,-0.29004 3.14209,-1.13379c0.62256,-0.62109 0.99902,-1.42383 1.19092,-2.27344c0.54639,-2.43311 0.14355,-8.2002 0.10693,-10.91455z" fill="#030303"/><path d="M196.71826,238.28174c0.97852,-0.03809 1.96143,-0.03809 2.93994,-0.05713l-0.03076,2.71289c0.01465,3.7207 0.76318,9.13623 -1.96582,12.10254c-1.35352,1.47217 -3.27832,2.10938 -5.23975,2.15186c-1.94971,0.04102 -3.89648,-0.49951 -5.29834,-1.91602c-2.44043,-2.4668 -2.14014,-6.24756 -2.17383,-9.43945c-0.02197,-1.86182 -0.03369,-3.7251 -0.03223,-5.58838l2.98535,-0.01318c-0.01025,2.77148 -0.33984,8.41553 0.1582,10.84863c0.17432,0.84668 0.53467,1.67432 1.12646,2.31299c0.78809,0.85107 1.85742,1.20703 3,1.20557c1.18652,0 2.30273,-0.34277 3.14209,-1.20703c0.61377,-0.63135 0.98877,-1.44727 1.17773,-2.2998c0.54053,-2.44922 0.21387,-8.0083 0.21094,-10.81348z" fill="#030303"/><path d="M37.49663,238.23193l3.30103,-0.00732c-0.40562,1.11768 -0.91421,2.20459 -1.38838,3.29443c-1.99951,4.41504 -3.93545,8.99414 -5.62661,13.53662l-2.96016,-0.00586c-1.50747,-4.00781 -3.23994,-7.97607 -4.87852,-11.93701c-0.64014,-1.54687 -1.35234,-3.07764 -1.90444,-4.6582c0.3063,-0.2417 0.56719,-0.17725 0.94717,-0.19336l2.16987,-0.01611c0.63369,1.84424 1.45986,3.64014 2.19829,5.44629c1.02319,2.54004 2.03203,5.0874 3.02637,7.63916c1.68442,-4.34326 3.72056,-8.66162 5.11538,-13.09863z" fill="#030303"/><path d="M130.17876,237.94482c2.76621,0.08936 4.71475,1.00342 6.70166,2.87256c-0.67383,0.57129 -1.32671,1.17188 -1.98809,1.75635c-0.88652,-0.84375 -1.92466,-1.49268 -3.12231,-1.78711c-1.50308,-0.37793 -3.09565,-0.11719 -4.39951,0.7207c-1.31602,0.86426 -2.19785,2.31152 -2.49771,3.84521c-0.32593,1.66553 -0.02856,3.54492 0.95171,4.94971c0.89092,1.27588 2.29248,1.99951 3.81533,2.20605c1.82051,0.24902 3.27979,-0.28418 4.72031,-1.35352c0.24536,-0.23291 0.42964,-0.46289 0.78501,-0.49951c0.34526,0.13184 0.55488,0.23145 0.81519,0.49805c0.39097,0.3999 0.80698,0.76172 1.2271,1.13086c-1.49282,1.4165 -3.35874,2.48877 -5.40762,2.81689c-2.34478,0.37646 -4.68003,-0.16406 -6.59165,-1.5791c-1.82695,-1.35352 -2.9165,-3.271 -3.22544,-5.51953c-0.32505,-2.36426 0.21973,-4.94531 1.72925,-6.82617c1.6585,-2.06689 3.91362,-2.99121 6.48677,-3.23145z" fill="#030303"/><path d="M168.66211,238.21289c4.57324,0.06299 9.14648,0.06299 13.71973,0.00146l0.08496,2.6499c-1.83398,0.08496 -3.69141,0.03955 -5.52832,0.04395l0.03076,8.62793v5.4375l-2.93848,-0.02197l-0.01758,-14.0625c-1.79004,-0.07178 -3.60791,-0.00146 -5.40088,0.01025z" fill="#030303"/><path d="M89.73999,238.25537c0.25869,0.00146 0.36519,0.0249 0.60161,0.10693c0.33677,0.71338 0.17139,1.73877 0.14268,2.52246c-1.77026,0.03369 -3.54302,0.03076 -5.31357,0.04541l0.07383,14.06836l-3.03984,0.02051l0.04058,-4.05908l0.04028,-10.06787c-1.87368,-0.08936 -3.7686,-0.04395 -5.64507,-0.05127l0.06899,-2.5415c4.34355,0.02051 8.68711,0.00586 13.03052,-0.04395z" fill="#030303"/><path d="M158.2251,238.23633l3,-0.01611c-0.12158,4.68604 0.00293,9.39844 -0.03955,14.09033c2.93408,0.02344 5.86816,0.01172 8.80225,-0.03809c0.03662,0.89648 0.0293,1.79736 0.03955,2.69385c-1.24951,0.18311 -2.74805,0.01465 -4.021,0.00439c-2.59277,-0.02051 -5.18555,-0.02197 -7.77832,-0.00439c0.15381,-5.56201 0.00146,-11.16357 -0.00293,-16.72998z" fill="#030303"/></g></svg></svg>